<?xml version="1.0" encoding="utf-8"?>
<!-- Generator: Adobe Illustrator 16.0.0, SVG Export Plug-In . SVG Version: 6.00 Build 0)  -->
<!DOCTYPE svg PUBLIC "-//W3C//DTD SVG 1.1//EN" "http://www.w3.org/Graphics/SVG/1.1/DTD/svg11.dtd">
<svg version="1.1" id="图层_1" xmlns="http://www.w3.org/2000/svg" xmlns:xlink="http://www.w3.org/1999/xlink" x="0px" y="0px"
	 width="133.795px" height="26.002px" viewBox="0.094 7.121 133.795 26.002" enable-background="new 0.094 7.121 133.795 26.002"
	 xml:space="preserve">
<rect x="30.97" y="17.413" fill="#FFFFFF" width="9.751" height="3.25"/>
<path fill="#FFFFFF" d="M29.346,26.622c-0.896,0-1.625-0.583-1.625-1.3V14.921c0-0.715,0.729-1.3,1.625-1.3h11.375v-3.25h-13h-1.084
	c-2.984,0-5.417,1.947-5.417,4.333v10.834c0,2.386,2.433,4.333,5.417,4.333h1.084h13v-3.25L29.346,26.622L29.346,26.622z"/>
<path fill="#FFFFFF" d="M71.596,26.622c-0.895,0-1.625-0.583-1.625-1.3V14.921c0-0.715,0.73-1.3,1.625-1.3h11.375v-3.25h-13h-1.082
	c-2.984,0-5.417,1.947-5.417,4.333v10.834c0.001,2.386,2.434,4.333,5.417,4.333h1.082h10.834v-3.25L71.596,26.622L71.596,26.622z"/>
<path fill="#FFFFFF" d="M111.68,10.371L111.68,10.371L111.68,10.371h1.084v19.501h-6.5V14.705
	C106.264,12.318,108.697,10.371,111.68,10.371z"/>
<polygon fill="#FFFFFF" points="48.845,13.621 48.845,29.872 55.346,29.872 55.346,13.621 61.846,13.621 61.846,10.371 
	55.346,10.371 48.845,10.371 42.345,10.371 42.345,13.621 "/>
<path fill="#DAB866" d="M89.624,24.982l13.138-17.861h-1.111L89.066,24.229L89.624,24.982L89.624,24.982z M87.969,33.122
	l-9.16-12.458h-5.588v-3.25h3.196h6.554h0.002l1.99,2.709l4.646,6.314l4.646-6.314l9.562-13.001h3.276l-9.561,13.001l-9.562,13
	l-0.002-0.003V33.122z"/>
<path fill="#FFFFFF" d="M14.178,10.371h-1.083h-13v3.25h11.376c0.875,0,1.593,0.559,1.625,1.253v1.286
	c-0.031,0.694-0.749,1.253-1.625,1.253H8.38H6.594h-6.5v3.25v9.208h6.5v-9.208h3.017l3.484,9.208h6.5l-3.582-9.465
	c2.085-0.604,3.582-2.206,3.582-4.077v-1.625C19.595,12.318,17.162,10.371,14.178,10.371z"/>
<path fill="#FFFFFF" d="M133.889,10.371h-13h-1.084c-2.981,0-5.416,1.947-5.416,4.333v1.625c0,2.386,2.435,4.333,5.416,4.333h1.084
	h4.875c0.877,0,1.594,0.559,1.625,1.252v3.453c-0.031,0.693-0.748,1.253-1.625,1.253h-11.375v3.25h13h1.084
	c2.981,0,5.416-1.947,5.416-4.333v-3.793c0-2.386-2.435-4.333-5.416-4.333h-1.084h-4.877c-0.875,0-1.595-0.562-1.623-1.259v-1.275
	c0.028-0.696,0.748-1.258,1.623-1.258h11.377V10.371z"/>
</svg>
